<svg xmlns="http://www.w3.org/2000/svg" width="1348.353" height="1348.642"><path d="M1348.353 692.29a668.453 668.453 0 01-75.438 292.963 158.244 158.244 0 01-3.186 6.13 673.86 673.86 0 01-595.319 357.258 682.759 682.759 0 01-102.753-7.656C242.712 1290.19-.06 1007.132 0 674.291v-11.325A674.459 674.459 0 01571.552 7.732 680.525 680.525 0 01674.29 0a670.983 670.983 0 01378.91 116.434l-176.771 253.75a365.036 365.036 0 1077.914 538.393L571.657 808.361V488.792l188.1 49.255 274.225 71.9z" fill="#36373d"/></svg>