<svg xmlns="http://www.w3.org/2000/svg" width="9.919" height="23.062"><defs><clipPath id="a"><path d="M0 0h9.919v23.062H0z" fill="none"/></clipPath></defs><path d="M0 0h9.919v23.062H0z" fill="none"/><g clip-path="url(#a)"><path d="M9.471 23.063H.481c-.436-.193-.471-.3-.472-.837V21.3c.01-.635.016-1.29-.009-1.939a.665.665 0 01.715-.767l.437-.024.09-.852.019-.175c.027-.258.055-.516.08-.773q.251-2.495.5-4.991L2 10.191l.038-.371.005-.049c.038-.374.077-.761.109-1.144a1.034 1.034 0 00-.111-.538l-.518-1.038-.211-.421C.949 5.906.528 5.066.122 4.241a.962.962 0 01-.111-.386A159.971 159.971 0 01.01.681v-.1A.514.514 0 01.341.065.625.625 0 01.6 0a.571.571 0 01.359.142.568.568 0 01.208.5v1.901c0 .068 0 .128.01.182 0 .023 0 .046.005.072l.033.477H4.38V.7a1.331 1.331 0 01.01-.209.568.568 0 01.582-.479h.057A.576.576 0 015.545.6c.008.423.006.854 0 1.27v1.401h3.166l.026-.485.005-.08V2.7c0-.063.009-.135.009-.209V.693A.635.635 0 019.2.019.766.766 0 019.349 0c.247 0 .436.157.563.465v3.547c-.025.055-.05.109-.075.158l-.5 1c-.428.853-.934 1.861-1.437 2.873a1.19 1.19 0 00-.13.614c.076.819.162 1.665.242 2.456l.039.39v.011l.036.36s.4 3.949.493 4.921l.056.551.038.372.091.886h.463a.66.66 0 01.682.451v3.557a.754.754 0 01-.448.448zm-8.287-3.27v2.084h7.552v-2.084zM3.3 8.854l-.973 9.734H7.6l-.975-9.734zM1.811 4.461l.076.576v.005a.61.61 0 00.062.246l.162.326c.293.59.557 1.122.831 1.648a.82.82 0 00.688.4h2.65a.785.785 0 00.749-.47c.164-.339.334-.679.509-1.028l.263-.525c.044-.088.084-.174.126-.265l.02-.044c.022-.048.044-.1.068-.148l.343-.731z" fill="#fff"/></g></svg>