<svg xmlns="http://www.w3.org/2000/svg" width="17.857" height="14.706"><path d="M17.857 1.741a7.215 7.215 0 01-2.1.584A3.711 3.711 0 0017.364.271a7.275 7.275 0 01-2.326.9A3.636 3.636 0 0012.363 0 3.688 3.688 0 008.7 3.713a3.765 3.765 0 00.095.846A10.357 10.357 0 011.243.68a3.75 3.75 0 001.134 4.956 3.616 3.616 0 01-1.659-.464v.047a3.7 3.7 0 002.939 3.64 3.638 3.638 0 01-.965.13A3.583 3.583 0 012 8.922 3.674 3.674 0 005.424 11.5a7.288 7.288 0 01-4.55 1.59A7.309 7.309 0 010 13.038a10.268 10.268 0 005.616 1.668A10.427 10.427 0 0016.04 4.143q0-.241-.01-.481a7.476 7.476 0 001.827-1.921z" fill="#f2f2f2"/></svg>