<svg xmlns="http://www.w3.org/2000/svg" width="1348.353" height="1348.642" viewBox="0 0 1348.353 1348.642"><path d="M1348.353,692.29a668.453,668.453,0,0,1-75.438,292.963c-1.012,2.069-2.069,4.077-3.186,6.13a673.86,673.86,0,0,1-595.319,357.258,682.759,682.759,0,0,1-102.753-7.656C242.712,1290.19-.06,1007.132,0,674.291V662.966A674.459,674.459,0,0,1,571.552,7.732,680.525,680.525,0,0,1,674.29,0,670.983,670.983,0,0,1,1053.2,116.434L876.429,370.184a365.036,365.036,0,1,0,77.914,538.393L571.657,808.361V488.792l188.1,49.255,274.225,71.9Z" fill="#36373d"/></svg>