<svg xmlns="http://www.w3.org/2000/svg" width="15.756" height="14.706" viewBox="0 0 15.756 14.706"><path d="M12.38,14.706V9.4c0-1.334-.489-2.244-1.711-2.244A1.843,1.843,0,0,0,8.936,8.36a2.21,2.21,0,0,0-.113.8v5.541H5.445s.046-8.991,0-9.923H8.823V6.189c-.006.011-.015.023-.022.032h.022V6.189A3.369,3.369,0,0,1,11.867,4.55c2.222,0,3.889,1.418,3.889,4.466v5.69ZM.2,14.706V4.784H3.578v9.923ZM1.867,3.429A1.731,1.731,0,0,1,0,1.715,1.746,1.746,0,0,1,1.912,0,1.737,1.737,0,0,1,3.8,1.715,1.744,1.744,0,0,1,1.889,3.429Z" fill="#f2f2f2"/></svg>