<svg xmlns="http://www.w3.org/2000/svg" xmlns:xlink="http://www.w3.org/1999/xlink" width="9.919" height="23.062" viewBox="0 0 9.919 23.062"><defs><clipPath id="a"><path d="M0,0H9.919V23.062H0Z" transform="translate(0 0)" fill="none"/></clipPath></defs><path d="M0,0H9.919V23.062H0Z" transform="translate(0 0)" fill="none"/><g clip-path="url(#a)"><path d="M9.471,23.063H.481c-.436-.193-.471-.3-.472-.837,0-.224,0-.451,0-.675V21.3C.019,20.665.025,20.01,0,19.361a.665.665,0,0,1,.715-.767l.437-.024.09-.852.019-.175c.027-.258.055-.516.08-.773q.251-2.495.5-4.991L2,10.191l.038-.371.005-.049c.038-.374.077-.761.109-1.144a1.034,1.034,0,0,0-.111-.538q-.258-.519-.518-1.038l-.211-.421C.949,5.906.528,5.066.122,4.241a.962.962,0,0,1-.111-.386C0,2.791,0,1.718.01.681v-.1A.514.514,0,0,1,.341.065.625.625,0,0,1,.6,0,.571.571,0,0,1,.959.142a.568.568,0,0,1,.208.5c0,.56,0,1.129,0,1.562v.339c0,.068,0,.128.01.182,0,.023,0,.046.005.072l.033.477H4.38V2.237c0-.5,0-.988,0-1.481V.7A1.331,1.331,0,0,1,4.39.491.568.568,0,0,1,4.972.012l.057,0A.576.576,0,0,1,5.545.6c.008.423.006.854,0,1.27,0,.192,0,.379,0,.567v.834H8.711l.026-.485.005-.08V2.7c0-.063.009-.135.009-.209q0-.266,0-.533V1.693q0-.5,0-1A.635.635,0,0,1,9.2.019.766.766,0,0,1,9.349,0c.247,0,.436.157.563.465l0,.007,0,.01v3.53c-.025.055-.05.109-.075.158l-.5,1c-.428.853-.934,1.861-1.437,2.873a1.19,1.19,0,0,0-.13.614c.076.819.162,1.665.242,2.456q.019.2.039.39v.011q.018.18.036.36s.4,3.949.493,4.921q.027.275.056.551.019.185.038.372l.091.886h.463a.66.66,0,0,1,.682.451v3.557a.754.754,0,0,1-.448.448h0Zm-8.287-3.27v2.084H8.736V19.793ZM3.3,8.854l-.973,9.734H7.6L6.625,8.854ZM1.811,4.461l.076.576v.005a.61.61,0,0,0,.062.246l.162.326c.293.59.557,1.122.831,1.648a.82.82,0,0,0,.688.4c.465,0,.937,0,1.393,0,.409,0,.832,0,1.247,0h.01a.785.785,0,0,0,.749-.47c.164-.339.334-.679.509-1.028q.132-.262.263-.525c.044-.088.084-.174.126-.265l.02-.044c.022-.048.044-.1.068-.148l.343-.731Z" transform="translate(0 0)" fill="#fff"/></g></svg>