<svg xmlns="http://www.w3.org/2000/svg" width="17.857" height="14.706" viewBox="0 0 17.857 14.706"><path d="M17.857,1.741a7.215,7.215,0,0,1-2.1.584A3.711,3.711,0,0,0,17.364.271a7.275,7.275,0,0,1-2.326.9A3.636,3.636,0,0,0,12.363,0,3.688,3.688,0,0,0,8.7,3.713a3.765,3.765,0,0,0,.095.846A10.357,10.357,0,0,1,1.243.68,3.75,3.75,0,0,0,2.377,5.636,3.616,3.616,0,0,1,.718,5.172c0,.015,0,.031,0,.047a3.7,3.7,0,0,0,2.939,3.64,3.638,3.638,0,0,1-.965.13A3.583,3.583,0,0,1,2,8.922,3.674,3.674,0,0,0,5.424,11.5,7.288,7.288,0,0,1,.874,13.09,7.309,7.309,0,0,1,0,13.038a10.268,10.268,0,0,0,5.616,1.668A10.427,10.427,0,0,0,16.04,4.143q0-.241-.01-.481A7.476,7.476,0,0,0,17.857,1.741Z" fill="#f2f2f2"/></svg>